<svg width="28" height="28" viewBox="0 0 28 28" fill="none" xmlns="http://www.w3.org/2000/svg">
<path fill-rule="evenodd" clip-rule="evenodd" d="M14.4375 26.25C8.8795 26.25 4.375 21.5609 4.375 16.2969C4.375 15.0745 4.40213 14.0822 5.25 13.125C5.15812 13.6798 6.47237 18.4231 10.7669 18.1746C10.5805 14.5705 9.60576 5.74087 14.133 2.68887C13.7331 7.48737 14.9082 13.9335 20.1504 14.875C19.8502 12.9509 19.8861 9.75013 21.2336 9.15863C21.3789 12.1065 23.5585 13.9248 23.5585 16.758C23.5585 21.889 18.5946 26.25 14.4375 26.25ZM22.6669 6.08388C18.83 7.17763 18.1274 10.2795 18.375 12.25C15.638 9.03175 15.75 5.33138 15.75 0C6.972 3.31012 9.01337 12.852 8.75 15.75C6.54238 13.9431 6.125 9.625 6.125 9.625C3.794 10.8246 2.625 14.0271 2.625 16.625C2.625 22.9075 7.7175 28 14 28C20.2825 28 25.375 22.9075 25.375 16.625C25.375 12.8914 22.6336 11.1694 22.6669 6.08388Z" fill="#FF387B"/>
</svg>
